<svg xmlns="http://www.w3.org/2000/svg" viewBox="0 0 500 500"><g id="freepik--Shadow--inject-69"><ellipse cx="250" cy="448.8" rx="198.22" ry="19.42" style="fill:#ebebeb"></ellipse></g><g id="freepik--Balloons--inject-69"><rect x="415.56" y="280.98" width="0.76" height="80.1" style="fill:#263238"></rect><polygon points="439.35 249.54 417.62 361.08 416.85 361.08 438.61 249.39 439.35 249.54" style="fill:#263238"></polygon><polygon points="415.67 361.08 414.92 361.08 408.34 221.3 409.09 221.26 415.56 358.92 415.67 361.08" style="fill:#263238"></polygon><path d="M430.55,194.66a37.73,37.73,0,0,1-9.27,14.94c-5.71,5.87-11.58,9.06-11.53,9.69.18,1.78,1.91,4.49,1.78,5.08s-1.59,1.18-2.81,1.18-2.68-.59-2.82-1.18,1.6-3.3,1.77-5.08c.13-1.26-23.69-12.86-22.05-35.8.85-11.77,8.29-16.53,14.59-18.45a30.24,30.24,0,0,1,5.37-1.09,28.54,28.54,0,0,1,3.14-.19c3.35,0,21.72.82,23.08,19.73A30.08,30.08,0,0,1,430.55,194.66Z" style="fill:#4747B3"></path><path d="M409.75,219.29c.18,1.78,1.91,4.49,1.78,5.08s-1.59,1.18-2.81,1.18-2.68-.59-2.82-1.18,1.6-3.3,1.77-5.08c.13-1.26-23.69-12.86-22.05-35.8.85-11.77,8.29-16.53,14.59-18.45-5.59,4.79-12.48,14.2-7.5,29.52,4.61,14.15,18.15,18.34,28.57,15C415.57,215.47,409.7,218.66,409.75,219.29Z" style="opacity:0.1"></path><path d="M424.65,176.66a5.19,5.19,0,1,1-5.19-5.19A5.19,5.19,0,0,1,424.65,176.66Z" style="fill:#fff"></path><path d="M460.81,221.28a37.47,37.47,0,0,1-9.27,14.95c-5.7,5.87-11.58,9.06-11.52,9.68.18,1.78,1.91,4.49,1.77,5.08s-1.58,1.18-2.81,1.18-2.68-.59-2.81-1.18,1.59-3.3,1.77-5.08c.12-1.25-23.7-12.85-22.05-35.79.85-11.78,8.28-16.54,14.59-18.45a29.47,29.47,0,0,1,5.37-1.1,27.74,27.74,0,0,1,3.13-.18c3.36,0,21.73.81,23.09,19.73A30.2,30.2,0,0,1,460.81,221.28Z" style="fill:#c7c7c7"></path><path d="M440,245.91c.18,1.78,1.91,4.49,1.77,5.08s-1.58,1.18-2.81,1.18-2.68-.59-2.81-1.18,1.59-3.3,1.77-5.08c.12-1.25-23.7-12.85-22.05-35.79.85-11.78,8.28-16.54,14.59-18.45-5.6,4.78-12.49,14.19-7.5,29.52,4.6,14.14,18.14,18.34,28.56,15C445.84,242.1,440,245.29,440,245.91Z" style="fill:#a6a6a6"></path><path d="M455.65,203.35a5.19,5.19,0,1,1-5.19-5.19A5.19,5.19,0,0,1,455.65,203.35Z" style="fill:#fff"></path><path d="M437.76,252.75a37.85,37.85,0,0,1-9.41,15.05c-5.66,5.77-11.42,8.9-11.37,9.52.18,1.78,1.91,4.49,1.78,5.08s-1.59,1.18-2.81,1.18-2.68-.59-2.82-1.18,1.6-3.3,1.77-5.08c.12-1.25-23.7-12.85-22-35.79.86-11.87,8.4-16.61,14.73-18.5a31,31,0,0,1,5.34-1.07c1.36-.14,2.43-.17,3-.17,3.35,0,21.72.82,23.08,19.74A30.1,30.1,0,0,1,437.76,252.75Z" style="fill:#37474f"></path><path d="M392.85,241.53c.86-11.87,8.4-16.61,14.73-18.5-5.63,4.72-12.77,14.18-7.72,29.71,4.59,14.11,18.08,18.32,28.49,15.06-5.66,5.77-11.42,8.9-11.37,9.52.18,1.78,1.91,4.49,1.78,5.08s-1.59,1.18-2.81,1.18-2.68-.59-2.82-1.18,1.6-3.3,1.77-5.08C415,276.07,391.2,264.47,392.85,241.53Z" style="fill:#263238"></path><path d="M432,234.59a5.19,5.19,0,1,1-5.19-5.19A5.19,5.19,0,0,1,432,234.59Z" style="fill:#fff"></path><rect x="409.23" y="342.49" width="14.28" height="18.66" style="fill:#4747B3"></rect><rect x="67.87" y="280.98" width="0.76" height="80.1" style="fill:#263238"></rect><polygon points="91.65 249.54 69.92 361.08 69.15 361.08 90.92 249.39 91.65 249.54" style="fill:#263238"></polygon><polygon points="67.97 361.08 67.22 361.08 60.64 221.3 61.4 221.26 67.87 358.92 67.97 361.08" style="fill:#263238"></polygon><path d="M82.85,194.66a37.51,37.51,0,0,1-9.27,14.94c-5.7,5.87-11.58,9.06-11.52,9.69.18,1.78,1.91,4.49,1.77,5.08s-1.58,1.18-2.81,1.18-2.67-.59-2.81-1.18,1.59-3.3,1.77-5.08c.12-1.26-23.7-12.86-22-35.8C38.78,171.72,46.21,167,52.52,165A30.24,30.24,0,0,1,57.89,164a28.39,28.39,0,0,1,3.13-.19c3.36,0,21.73.82,23.09,19.73A30.28,30.28,0,0,1,82.85,194.66Z" style="fill:#c7c7c7"></path><path d="M62.06,219.29c.18,1.78,1.91,4.49,1.77,5.08s-1.58,1.18-2.81,1.18-2.67-.59-2.81-1.18,1.59-3.3,1.77-5.08c.12-1.26-23.7-12.86-22-35.8C38.78,171.72,46.21,167,52.52,165c-5.6,4.79-12.49,14.2-7.5,29.52,4.6,14.15,18.14,18.34,28.56,15C67.88,215.47,62,218.66,62.06,219.29Z" style="fill:#a6a6a6"></path><path d="M77,176.66a5.19,5.19,0,1,1-5.19-5.19A5.19,5.19,0,0,1,77,176.66Z" style="fill:#fff"></path><path d="M113.12,221.28a37.59,37.59,0,0,1-9.27,14.95c-5.71,5.87-11.58,9.06-11.52,9.68.17,1.78,1.91,4.49,1.77,5.08s-1.59,1.18-2.81,1.18-2.68-.59-2.82-1.18,1.6-3.3,1.77-5.08c.13-1.25-23.69-12.85-22-35.79.84-11.78,8.28-16.54,14.58-18.45a29.64,29.64,0,0,1,5.37-1.1,28,28,0,0,1,3.14-.18c3.35,0,21.73.81,23.09,19.73A30.2,30.2,0,0,1,113.12,221.28Z" style="fill:#37474f"></path><path d="M92.33,245.91c.17,1.78,1.91,4.49,1.77,5.08s-1.59,1.18-2.81,1.18-2.68-.59-2.82-1.18,1.6-3.3,1.77-5.08c.13-1.25-23.69-12.85-22-35.79.84-11.78,8.28-16.54,14.58-18.45-5.59,4.78-12.48,14.19-7.5,29.52,4.61,14.14,18.15,18.34,28.57,15C98.14,242.1,92.27,245.29,92.33,245.91Z" style="fill:#263238"></path><path d="M108,203.35a5.2,5.2,0,1,1-5.19-5.19A5.19,5.19,0,0,1,108,203.35Z" style="fill:#fff"></path><path d="M90.06,252.75a37.63,37.63,0,0,1-9.41,15.05c-5.66,5.77-11.42,8.9-11.36,9.52.17,1.78,1.91,4.49,1.77,5.08s-1.58,1.18-2.81,1.18-2.68-.59-2.81-1.18,1.59-3.3,1.77-5.08c.12-1.25-23.7-12.85-22-35.79.85-11.87,8.4-16.61,14.73-18.5A31,31,0,0,1,65.23,222c1.36-.14,2.43-.17,3-.17,3.36,0,21.73.82,23.09,19.74A29.9,29.9,0,0,1,90.06,252.75Z" style="fill:#4747B3"></path><path d="M45.16,241.53c.85-11.87,8.4-16.61,14.73-18.5-5.63,4.72-12.77,14.18-7.72,29.71,4.59,14.11,18.07,18.32,28.48,15.06-5.66,5.77-11.42,8.9-11.36,9.52.17,1.78,1.91,4.49,1.77,5.08s-1.58,1.18-2.81,1.18-2.68-.59-2.81-1.18,1.59-3.3,1.77-5.08C67.33,276.07,43.51,264.47,45.16,241.53Z" style="opacity:0.1"></path><path d="M84.28,234.59a5.19,5.19,0,1,1-5.19-5.19A5.2,5.2,0,0,1,84.28,234.59Z" style="fill:#fff"></path><rect x="61.54" y="342.49" width="14.28" height="18.66" style="fill:#4747B3"></rect></g><g id="freepik--Floor--inject-69"><polygon points="43.94 361.07 95.45 360.83 146.97 360.74 250 360.57 353.03 360.74 404.55 360.83 456.06 361.07 404.55 361.32 353.03 361.4 250 361.57 146.97 361.4 95.45 361.31 43.94 361.07" style="fill:#263238"></polygon></g><g id="freepik--Ribbon--inject-69"><path d="M417.14,94.38a541,541,0,0,1-334.28,0Q93,63.15,103.15,31.92a475.24,475.24,0,0,0,293.7,0Q407,63.15,417.14,94.38Z" style="fill:#4747B3"></path><path d="M154.73,65.05l5.12,1q.79,4.78,1.63,9.58,2.46-4.2,4.85-8.43,2.58.45,5.18.87-3.45,5.79-7,11.56,1.13,4.67,2.32,9.33,6-9.9,11.61-19.91,3,.45,6.1.85-7.71,12.89-16.05,25.54c-1.66-.26-3.31-.53-5-.81q-1.68-6.15-3.22-12.31-3.58,5.25-7.29,10.44c-1.65-.31-3.29-.63-4.94-1Q144.64,77,141.9,62.27q3,.67,5.95,1.3,1.85,11.35,4.06,22.71,2.7-4,5.32-8Q155.93,71.68,154.73,65.05Z" style="fill:#fff"></path><path d="M205.61,95.22c-.14,1.56-.27,3.12-.41,4.69Q194.58,99,184,97.64q1.75-13.68,3.49-27.37,9.86,1.26,19.73,2.11c-.14,1.56-.27,3.13-.41,4.69q-7.12-.63-14.24-1.45c-.26,2.2-.51,4.4-.77,6.6q6.24.73,12.47,1.29l-.39,4.34q-6.3-.57-12.58-1.3c-.27,2.38-.55,4.76-.82,7.14Q198,94.56,205.61,95.22Z" style="fill:#fff"></path><path d="M209.86,100.29q1.06-13.77,2.12-27.52c1.88.15,3.76.28,5.64.41L216.12,96q7.74.51,15.49.78c-.06,1.57-.11,3.13-.17,4.7Q220.64,101.13,209.86,100.29Z" style="fill:#fff"></path><path d="M231.77,87.51a13.45,13.45,0,0,1,1.16-5,13.78,13.78,0,0,1,3-4.32,14.74,14.74,0,0,1,4.61-3,15.05,15.05,0,0,1,6.08-1.13,14.17,14.17,0,0,1,6.94,1.67A11.16,11.16,0,0,1,258,80c-1.45,1-2.9,1.93-4.37,2.89a7,7,0,0,0-1.42-2,7.24,7.24,0,0,0-1.78-1.26,8.86,8.86,0,0,0-2-.69,10.94,10.94,0,0,0-2-.22,8.22,8.22,0,0,0-3.75.78A8,8,0,0,0,240,81.66a8.89,8.89,0,0,0-1.67,2.92,10.52,10.52,0,0,0-.63,3.27,9.86,9.86,0,0,0,.56,3.53,8.82,8.82,0,0,0,4.52,5.12,8.28,8.28,0,0,0,3.61.81,10.8,10.8,0,0,0,2.14-.22,8.74,8.74,0,0,0,2.12-.74A7.59,7.59,0,0,0,252.45,95a5.86,5.86,0,0,0,1.36-1.93c1.6.83,3.22,1.65,4.84,2.47a8.3,8.3,0,0,1-2,2.77,13.05,13.05,0,0,1-3,2,16.65,16.65,0,0,1-3.64,1.26,17.41,17.41,0,0,1-3.81.41,14,14,0,0,1-6-1.32,15.06,15.06,0,0,1-4.59-3.36,14.43,14.43,0,0,1-2.89-4.63A13.06,13.06,0,0,1,231.77,87.51Z" style="fill:#fff"></path><path d="M275.56,101.4a14.82,14.82,0,0,1-6.15-.92,14.36,14.36,0,0,1-4.79-3,13.85,13.85,0,0,1-3.13-4.42,13.22,13.22,0,0,1-.17-10.45,14.73,14.73,0,0,1,13-9.18,13.76,13.76,0,0,1,5.82.91A14.82,14.82,0,0,1,288,81.54a13.38,13.38,0,0,1,1.44,5,13,13,0,0,1-.69,5.33A13.92,13.92,0,0,1,286,96.55a14.56,14.56,0,0,1-4.52,3.38A15.29,15.29,0,0,1,275.56,101.4Zm-9.35-13.62a10.3,10.3,0,0,0,.71,3.43,9,9,0,0,0,1.82,2.9,8.33,8.33,0,0,0,6.63,2.55,8.22,8.22,0,0,0,6.39-3.27,9,9,0,0,0,1.51-3.08,10.26,10.26,0,0,0,.35-3.39,10,10,0,0,0-.84-3.41,9.59,9.59,0,0,0-1.89-2.84,8.26,8.26,0,0,0-2.81-1.88,8.5,8.5,0,0,0-3.61-.57,8.28,8.28,0,0,0-3.64,1,8,8,0,0,0-2.61,2.2,9.35,9.35,0,0,0-1.55,3A10.53,10.53,0,0,0,266.21,87.78Z" style="fill:#fff"></path><path d="M320,97.12,317.55,79q-2.88,7.26-6,14.48l-3.19.37q-4.67-6.31-9.14-12.71.9,9.09,1.79,18.18c-2,.19-4,.38-6,.55q-1.18-13.74-2.38-27.49c2-.18,4-.36,6-.56q5.06,7.38,10.37,14.67,3.56-8.31,6.81-16.68,3-.41,6-.84l4,27.3C324,96.57,322,96.85,320,97.12Z" style="fill:#fff"></path><path d="M352.37,86.9l.93,4.61q-10.49,2.11-21.05,3.8-2.16-13.62-4.34-27.25,9.81-1.56,19.57-3.53l.93,4.61q-7.05,1.42-14.12,2.63c.38,2.18.75,4.37,1.12,6.55q6.19-1.06,12.37-2.28l.84,4.27q-6.22,1.23-12.47,2.3c.4,2.36.81,4.72,1.21,7.09Q344.89,88.41,352.37,86.9Z" style="fill:#fff"></path><path d="M356.29,80.29l-3.63-17.11c1.79-.38,3.59-.77,5.38-1.17q1.92,8.52,3.83,17.06C360,79.49,358.15,79.89,356.29,80.29Zm2.16,10.15c-.41-1.91-.82-3.83-1.22-5.74q2.82-.6,5.62-1.23l1.29,5.73C362.24,89.62,360.35,90,358.45,90.44Z" style="fill:#fff"></path><g style="opacity:0.1"><path d="M106.74,40a11.22,11.22,0,0,1-.33,3.78,32.16,32.16,0,0,1-1.1,3.62A34,34,0,0,1,102,54.16c.66-2.44,1.53-4.78,2.38-7.12l1.28-3.49A26.63,26.63,0,0,0,106.74,40Z"></path><path d="M107.74,40.82a12,12,0,0,1,1.23,3,20.65,20.65,0,0,1,.61,3.21,18.89,18.89,0,0,1-.41,6.49c-.14-1.09-.2-2.15-.29-3.22s-.19-2.11-.29-3.16C108.37,45.05,108.09,43,107.74,40.82Z"></path><path d="M110.11,40a23.8,23.8,0,0,0,2.46,2.27,20.48,20.48,0,0,0,2.7,1.85,21.12,21.12,0,0,0,3,1.43c1,.43,2.09.73,3.18,1.1a11,11,0,0,1-3.42-.36A12.54,12.54,0,0,1,112,42.83,9.11,9.11,0,0,1,110.11,40Z"></path></g><g style="opacity:0.1"><path d="M394.08,40a26.63,26.63,0,0,0,1.08,3.56L396.45,47c.85,2.34,1.71,4.68,2.37,7.12a35.08,35.08,0,0,1-3.31-6.77,30.17,30.17,0,0,1-1.09-3.62A11,11,0,0,1,394.08,40Z"></path><path d="M393.09,40.82c-.35,2.14-.63,4.23-.85,6.34-.11,1.05-.21,2.1-.29,3.16s-.16,2.13-.3,3.22a18.89,18.89,0,0,1-.41-6.49,20.65,20.65,0,0,1,.61-3.21A12,12,0,0,1,393.09,40.82Z"></path><path d="M390.72,40a9.31,9.31,0,0,1-1.94,2.84,12.54,12.54,0,0,1-5.94,3.45,10.92,10.92,0,0,1-3.41.36c1.09-.37,2.15-.67,3.17-1.1a22.24,22.24,0,0,0,5.66-3.28A23.8,23.8,0,0,0,390.72,40Z"></path></g><path d="M110.11,40a2.37,2.37,0,1,1-2.37-2.37A2.37,2.37,0,0,1,110.11,40Z" style="fill:#263238"></path><path d="M394.63,40a2.37,2.37,0,1,1-2.37-2.37A2.37,2.37,0,0,1,394.63,40Z" style="fill:#263238"></path></g><g id="freepik--Confetti--inject-69"><path d="M190,159.25a2.49,2.49,0,0,1-2.08,2.82,2.45,2.45,0,0,1-2.73-2.16,2.51,2.51,0,0,1,2.09-2.82A2.45,2.45,0,0,1,190,159.25Z" style="fill:#263238"></path><path d="M381.12,169.64a2.5,2.5,0,0,1-2.09,2.82,2.44,2.44,0,0,1-2.72-2.16,2.5,2.5,0,0,1,2.08-2.82A2.46,2.46,0,0,1,381.12,169.64Z" style="fill:#263238"></path><path d="M326.2,150.07a1.25,1.25,0,0,1-1.05,1.4,1.21,1.21,0,0,1-1.36-1.07,1.25,1.25,0,0,1,1-1.41A1.22,1.22,0,0,1,326.2,150.07Z" style="fill:#4747B3"></path><path d="M174,150.07a1.24,1.24,0,0,1-1,1.4,1.21,1.21,0,0,1-1.36-1.07,1.25,1.25,0,0,1,1-1.41A1.22,1.22,0,0,1,174,150.07Z" style="fill:#4747B3"></path><path d="M355.57,70.93a1.25,1.25,0,0,1-1,1.4,1.2,1.2,0,0,1-1.36-1.07,1.24,1.24,0,0,1,1-1.41A1.22,1.22,0,0,1,355.57,70.93Z" style="fill:#263238"></path><path d="M291.5,229.26a1.24,1.24,0,0,1-1,1.41,1.22,1.22,0,0,1-1.36-1.08,1.25,1.25,0,0,1,1-1.4A1.2,1.2,0,0,1,291.5,229.26Z" style="fill:#263238"></path><path d="M271.32,52.74a1.25,1.25,0,0,1-1,1.41,1.22,1.22,0,0,1-1.36-1.08,1.25,1.25,0,0,1,1-1.41A1.22,1.22,0,0,1,271.32,52.74Z" style="fill:#263238"></path><path d="M135.87,180.93a1.25,1.25,0,0,1-1,1.41,1.22,1.22,0,0,1-1.36-1.08,1.25,1.25,0,0,1,1-1.41A1.22,1.22,0,0,1,135.87,180.93Z" style="fill:#4747B3"></path><path d="M342.67,280a1.24,1.24,0,0,1-1,1.41,1.22,1.22,0,0,1-1.36-1.08,1.25,1.25,0,0,1,1.05-1.41A1.21,1.21,0,0,1,342.67,280Z" style="fill:#455a64"></path><path d="M178.18,258.37a1.25,1.25,0,0,1-1,1.41,1.21,1.21,0,0,1-1.36-1.08,1.24,1.24,0,0,1,1-1.41A1.22,1.22,0,0,1,178.18,258.37Z" style="fill:#4747B3"></path><path d="M195.42,210.21a2.49,2.49,0,0,1-2.08,2.82,2.44,2.44,0,0,1-2.73-2.16,2.49,2.49,0,0,1,2.09-2.81A2.43,2.43,0,0,1,195.42,210.21Z" style="fill:#4747B3"></path><path d="M216,80.41A2.51,2.51,0,0,1,214,83.23a2.45,2.45,0,0,1-2.72-2.16,2.49,2.49,0,0,1,2.08-2.82A2.45,2.45,0,0,1,216,80.41Z" style="fill:#455a64"></path><path d="M183,234.77a2.5,2.5,0,0,1-2.09,2.82,2.43,2.43,0,0,1-2.72-2.15,2.49,2.49,0,0,1,2.08-2.82A2.44,2.44,0,0,1,183,234.77Z" style="fill:#455a64"></path><path d="M306.23,61.68a2.48,2.48,0,0,1-2.08,2.81,2.43,2.43,0,0,1-2.72-2.15,2.49,2.49,0,0,1,2.08-2.82A2.43,2.43,0,0,1,306.23,61.68Z" style="fill:#263238"></path><path d="M304.25,143.18l3.44-1.19s-2.35-1.25-2.34-5.14,3.21-5.42,1.82-8.93L303.35,129a7.57,7.57,0,0,1,.17,6C302.51,137.18,301.6,139.83,304.25,143.18Z" style="fill:#263238"></path><path d="M220.1,158.36,216.71,157s1.06,2.5-1.31,5.51-5.79,2.11-6.86,5.75l3.62,1.67a7.33,7.33,0,0,1,3.49-4.73C217.8,164.16,220.13,162.7,220.1,158.36Z" style="fill:#455a64"></path><path d="M141.72,224.89l-3.38-1.32s1,2.5-1.32,5.51-5.79,2.11-6.85,5.75l3.61,1.67a7.33,7.33,0,0,1,3.49-4.73C139.42,230.68,141.75,229.22,141.72,224.89Z" style="fill:#263238"></path><path d="M401.66,218l-3.38-1.31s1.05,2.49-1.32,5.51-5.79,2.11-6.85,5.74l3.61,1.68a7.37,7.37,0,0,1,3.49-4.74C399.36,223.76,401.69,222.3,401.66,218Z" style="fill:#4747B3"></path><path d="M155.77,124.74l.49-3.71s-2.12,1.62-5.48-.1-3.27-5.39-6.93-5.66l-.78,4a7,7,0,0,1,5.24,2.48C149.8,123.7,151.69,125.73,155.77,124.74Z" style="fill:#263238"></path><path d="M134.7,274.36l.49-3.71s-2.12,1.62-5.48-.1-3.27-5.38-6.93-5.66l-.78,4a7,7,0,0,1,5.24,2.48C128.73,273.32,130.62,275.35,134.7,274.36Z" style="fill:#4747B3"></path><path d="M256.93,264.39l.49-3.71s-2.12,1.62-5.48-.1-3.27-5.38-6.93-5.66l-.78,4a7,7,0,0,1,5.23,2.48C251,263.35,252.85,265.38,256.93,264.39Z" style="fill:#455a64"></path><path d="M402.8,134.15l.49-3.71s-2.11,1.62-5.48-.11-3.27-5.38-6.93-5.65l-.77,4a7,7,0,0,1,5.23,2.48C396.83,133.11,398.72,135.13,402.8,134.15Z" style="fill:#4747B3"></path><path d="M185.72,278.68l.69,3.68s1.5-2.24,5.22-1.72,4.76,4,8.31,3.05l-.51-4.07a6.87,6.87,0,0,1-5.72-.6C191.7,277.68,189.28,276.39,185.72,278.68Z" style="fill:#455a64"></path><path d="M246.28,202l-3.82-2.14s-3.08,4.82.63,7.25C243.09,207.07,242.32,203.94,246.28,202Z" style="fill:#4747B3"></path><path d="M243.19,212.94l4-1.55s.23-3.56-4.11-4.32C243.09,207.07,245.81,210.29,243.19,212.94Z" style="fill:#4747B3"></path><path d="M139.6,51.6l-3.81-2.14s-3.09,4.82.63,7.25C136.42,56.71,135.65,53.58,139.6,51.6Z" style="fill:#455a64"></path><path d="M136.52,62.58l4-1.55s.23-3.56-4.11-4.32C136.42,56.71,139.14,59.93,136.52,62.58Z" style="fill:#455a64"></path><path d="M271.88,141.43a2.5,2.5,0,0,1,2.09-2.82,2.44,2.44,0,0,1,2.72,2.16,2.51,2.51,0,0,1-2.09,2.82A2.45,2.45,0,0,1,271.88,141.43Z" style="fill:#263238"></path><path d="M350.05,189.85a2.49,2.49,0,0,1,2.09-2.81,2.43,2.43,0,0,1,2.72,2.15,2.49,2.49,0,0,1-2.08,2.82A2.45,2.45,0,0,1,350.05,189.85Z" style="fill:#4747B3"></path><path d="M299,277.76a2.5,2.5,0,0,1,2.09-2.82,2.44,2.44,0,0,1,2.72,2.16,2.5,2.5,0,0,1-2.08,2.82A2.46,2.46,0,0,1,299,277.76Z" style="fill:#4747B3"></path><path d="M96.72,236.67a1.24,1.24,0,0,1,1-1.41,1.22,1.22,0,0,1,1.36,1.08,1.26,1.26,0,0,1-1.05,1.41A1.21,1.21,0,0,1,96.72,236.67Z" style="fill:#4747B3"></path><path d="M292.9,209.67a1.25,1.25,0,0,1,1-1.41,1.22,1.22,0,0,1,1.36,1.08,1.25,1.25,0,0,1-1,1.41A1.23,1.23,0,0,1,292.9,209.67Z" style="fill:#4747B3"></path><path d="M260.11,109.19a1.25,1.25,0,0,1,1-1.41,1.22,1.22,0,0,1,1.36,1.08,1.25,1.25,0,0,1-1,1.41A1.22,1.22,0,0,1,260.11,109.19Z" style="fill:#37474f"></path><path d="M351.6,120.47a2.5,2.5,0,0,1,2.09-2.82,2.44,2.44,0,0,1,2.72,2.16,2.49,2.49,0,0,1-2.09,2.81A2.44,2.44,0,0,1,351.6,120.47Z" style="fill:#4747B3"></path><path d="M102.34,210.25a2.49,2.49,0,0,1,2.08-2.81,2.44,2.44,0,0,1,2.73,2.15,2.5,2.5,0,0,1-2.09,2.82A2.43,2.43,0,0,1,102.34,210.25Z" style="fill:#455a64"></path><path d="M203.7,121.66l-5.78,1.7s-2.75-7.48,3-9.59C200.89,113.77,198.94,117.75,203.7,121.66Z" style="fill:#455a64"></path><path d="M202.75,105.88l5,3.34s-.73,4.88-6.82,4.55C200.89,113.77,205.52,110.27,202.75,105.88Z" style="fill:#455a64"></path><path d="M388.47,265.23l-5.77,1.7s-2.75-7.48,3-9.59C385.67,257.34,383.72,261.32,388.47,265.23Z" style="fill:#455a64"></path><path d="M387.53,249.45l5,3.34s-.73,4.88-6.82,4.55C385.67,257.34,390.29,253.84,387.53,249.45Z" style="fill:#455a64"></path><path d="M349.59,214.93l-.78-6.17s7.54-1.73,8.72,4.44C357.53,213.2,354,210.63,349.59,214.93Z" style="fill:#263238"></path><path d="M364.81,216.25l-3.92,4.6s-4.56-1.46-3.36-7.65C357.53,213.2,360.21,218.45,364.81,216.25Z" style="fill:#263238"></path><path d="M209.63,256.84l-5.78,1.69s-2.75-7.47,3-9.58C206.83,249,204.88,252.93,209.63,256.84Z" style="fill:#263238"></path><path d="M208.69,241.05l5,3.35s-.73,4.88-6.82,4.55C206.83,249,211.45,245.45,208.69,241.05Z" style="fill:#263238"></path><path d="M313.28,104.32l3.81,2.15s3.09-4.82-.62-7.25C316.47,99.22,317.23,102.35,313.28,104.32Z" style="fill:#455a64"></path><path d="M316.37,93.35l-4,1.54s-.24,3.56,4.11,4.33C316.47,99.22,313.74,96,316.37,93.35Z" style="fill:#455a64"></path><path d="M306.43,228.23l.63,4.44s5.58-.34,5.22-4.87C312.28,227.8,310.33,230.31,306.43,228.23Z" style="fill:#4747B3"></path><path d="M316.76,224.19l-3.6-2.39s-2.89,1.94-.88,6C312.28,227.8,313.14,223.6,316.76,224.19Z" style="fill:#4747B3"></path></g><g id="freepik--character-2--inject-69"><path d="M172.19,447.68c2.16.7,65.82-.1,68.14-1.62.9-.56-3.58-60.46-3.58-60.46l-41.14.41L200,426.09s-23.41,10.83-25.78,12.77S170,447,172.19,447.68Z" style="fill:#d3766a"></path><path d="M172.19,447.68c2.15.7,65.83-.1,68.14-1.62.42-.25-.31-13.11-1.21-26.9H199.23l.76,6.92s-23.41,10.84-25.79,12.78S170,447,172.19,447.68Z" style="fill:#fff"></path><path d="M171.49,448.56c2.27.74,66.56.13,69-1.46.94-.59-.42-21.79-.42-21.91H200.31l0,.71s-24.72,11.33-27.23,13.37S169.22,447.82,171.49,448.56Z" style="fill:#a6a6a6"></path><path d="M171.66,446c10.93-.37,55-.84,65.86-.37.08,0,.08.06,0,.07-10.82.6-54.93.7-65.86.48C171.43,446.21,171.43,446,171.66,446Z" style="fill:#263238"></path><path d="M195.66,425.35c4.29-.84,9.56-.23,12.87,2.81.13.11,0,.29-.18.25a59.87,59.87,0,0,0-12.67-2.51A.28.28,0,0,1,195.66,425.35Z" style="fill:#263238"></path><path d="M192.57,427.25c4.29-.84,9.56-.23,12.87,2.81.13.11,0,.29-.18.25a59.87,59.87,0,0,0-12.67-2.51A.28.28,0,0,1,192.57,427.25Z" style="fill:#263238"></path><path d="M189.49,429.15c4.29-.84,9.55-.23,12.87,2.8.13.12,0,.3-.18.26a60.12,60.12,0,0,0-12.67-2.51A.28.28,0,0,1,189.49,429.15Z" style="fill:#263238"></path><path d="M195.83,424.39h44.3s-7.4-102.72-7.14-104.11c.44-2.31,3.06-12.78,6.54-26.46,1.09-4.28,2.27-8.88,3.49-13.64,3.3-12.87,6.95-26.93,10.12-39.18,4.76-18.33,8.47-32.58,8.47-32.58H224.07s-4.37,13.87-9.89,31.92c-9,29.32-21,69.69-22.17,79.5C190.57,331.72,195.83,424.39,195.83,424.39Z" style="fill:#455a64"></path><path d="M197.89,416.32c6.75-.14,4.81-.2,11.57-.26,3.3,0,25-.22,28.11.29a.07.07,0,0,1,0,.13c-3.09.51-24.81.33-28.11.29-6.76-.06-4.82-.12-11.57-.26A.1.1,0,1,1,197.89,416.32Z" style="fill:#263238"></path><path d="M254.79,213.51l-6.89,24.25-6.71,24.3c-2.24,8.1-4.4,16.22-6.56,24.34s-4.28,16.25-6.26,24.42c-.48,2.06-1,4.1-1.37,6.18-.11.51-.18,1.05-.27,1.57,0,.29-.06.61,0,.89l.06.78,5.89,89.48,0,.27.5-.31-5.43-89.51-.06-.78c0-.25,0-.46,0-.69.1-.51.16-1,.27-1.53.41-2,.91-4.08,1.38-6.12,3.94-16.33,8.33-32.55,12.6-48.8Z" style="fill:#263238"></path><path d="M225,208.42c2.61,20.16,12,53.66,15.66,81.09,8.47-33.23,21-81.09,21-81.09Z" style="fill:#263238"></path><path d="M315.45,447.36c-2.17.68-55.65.92-58-.63-.89-.57-1.2-9.59-1.27-20.5v-.34c0-2.25-5.19-40-5.19-40l40.4.82,4.67,39.68,0,.68s15.09,9.45,17.46,11.43S317.63,446.69,315.45,447.36Z" style="fill:#d3766a"></path><path d="M255.46,419.16c.45,3.61.75,6.19.75,6.73v.34c.07,10.91.38,19.92,1.27,20.5,2.32,1.55,55.8,1.32,58,.64s.41-6.93-1.95-8.89S296.06,427,296.06,427l0-.67-.85-7.21Z" style="fill:#fff"></path><path d="M318.1,448.56c-2.28.74-59.79.13-62.24-1.46-.94-.59.42-21.79.41-21.91h39.78l0,.71s17.94,11.33,20.45,13.37S320.37,447.82,318.1,448.56Z" style="fill:#a6a6a6"></path><path d="M317.92,446c-10.92-.37-48.25-.84-59.08-.37-.09,0-.09.06,0,.07,10.82.6,48.15.7,59.08.48C318.15,446.21,318.15,446,317.92,446Z" style="fill:#263238"></path><path d="M292.82,426.53c-5.45-1.51-12.23-1.5-16.65,1.5-.17.11,0,.34.21.31a84.94,84.94,0,0,1,16.38-1.2A.31.31,0,0,0,292.82,426.53Z" style="fill:#263238"></path><path d="M296.66,429.07c-5.45-1.51-12.23-1.5-16.65,1.5-.17.11,0,.34.21.31a84.94,84.94,0,0,1,16.38-1.2A.31.31,0,0,0,296.66,429.07Z" style="fill:#263238"></path><path d="M300.5,431.61c-5.45-1.51-12.23-1.5-16.65,1.5-.17.11,0,.34.22.31a84.77,84.77,0,0,1,16.37-1.2A.31.31,0,0,0,300.5,431.61Z" style="fill:#263238"></path><path d="M225,208.42s5.7,34.7,6.08,35.81c0,0,2.12,1,5.94,2.77l15.56,177.21,44.51.18-23.51-216Z" style="fill:#455a64"></path><path d="M254.08,416.29c6.8-.11,4.84-.17,11.64-.21,3.33,0,25.2-.11,28.31.41.06,0,.06.13,0,.14-3.12.5-25,.22-28.31.18-6.8-.1-4.85-.15-11.64-.32A.1.1,0,0,1,254.08,416.29Z" style="fill:#263238"></path><path d="M229.2,243.16a82.87,82.87,0,0,1,12.73,6.66.15.15,0,0,1-.14.26c-4.29-2.08-8.67-4.09-12.85-6.41A.29.29,0,0,1,229.2,243.16Z" style="fill:#263238"></path><path d="M230.84,223.28c.7,4.15,1.09,8.37,1.56,12.55.11,1,.23,2,.34,3a5.76,5.76,0,0,0,.72,2.64c.9,1.4,2.52,2.06,4,2.7.17.07.1.34-.08.28a9.63,9.63,0,0,1-4.23-2.24c-1.34-1.41-1.3-3.55-1.5-5.36a116.18,116.18,0,0,1-1-13.56A.1.1,0,0,1,230.84,223.28Z" style="fill:#263238"></path><path d="M235.89,224.55c.15,3,.48,6,.73,9,.12,1.47.23,2.95.32,4.42s.26,3,.21,4.54c0,.1-.16.13-.18,0-.24-1.42-.28-2.9-.4-4.33s-.22-3-.31-4.54c-.17-3-.25-6.07-.52-9.08C235.73,224.46,235.88,224.46,235.89,224.55Z" style="fill:#263238"></path><polygon points="237.9 251.44 240.28 271.81 242.76 292.15 247.89 332.83 256.98 412.26 248.83 332.71 243.49 292.06 240.74 271.75 237.9 251.44" style="fill:#263238"></polygon><path d="M236.45,160.94c-5.8,7.9-24,31.9-36.07,33.53-7.95,1.08-33.46-.93-39.89-3.45-2.66-1.05,4.76-25.35,7.92-25,5.86.57,28.09,6.12,31.48,5.35,3-.69,12.88-8.07,30.51-17.94C239.45,148.31,241.45,154.12,236.45,160.94Z" style="fill:#d3766a"></path><path d="M162.15,191.36c-2.74.13-15.33-.4-18.8-1.33s-13.27-4.33-12.83-7.06,3.39-2,3.39-2-3.91-2.09-3.22-4.8,5.25-1.36,5.25-1.36-3.86-2.44-3-5.09,5.23-.54,5.23-.54-3.63-2.07-2-4c2-2.25,8.25,2.31,12.16,3.05.89.17,18.24,2.12,18.24,2.12Z" style="fill:#d3766a"></path><path d="M137.82,169c4.62,3.34,7.22,4,12.82,4.37.11,0,.12.17,0,.17-5.52.15-8.9-.22-13-4.33C137.45,169.05,137.6,168.88,137.82,169Z" style="fill:#263238"></path><path d="M135.58,174.57c5.09,3.05,7.91,3.8,13.74,4.61a.08.08,0,0,1,0,.15c-5.79-.32-9.16-.76-13.85-4.48C135.25,174.68,135.34,174.43,135.58,174.57Z" style="fill:#263238"></path><path d="M134.21,181c5.15,2.6,8.19,3.55,14,3.61a.11.11,0,0,1,0,.21,19.1,19.1,0,0,1-14-3.66C133.85,181,133.88,180.87,134.21,181Z" style="fill:#263238"></path><path d="M168.41,166s-6-3.92-9-5.06-15.77-1.26-16,1.49c-.23,3.56,7.12,5.08,10.82,5.36,0,0-.56,8.23,4.48,10.46S168.41,166,168.41,166Z" style="fill:#d3766a"></path><path d="M143.73,163.41c2.12,3.4,7,3.45,10.57,4a.33.33,0,0,1,.26.47c0,3.47,1,8.35,4,10.45a.08.08,0,0,1-.08.14c-3.52-1.81-4.9-6.53-4.65-10.32-3.67-.5-8.56-.76-10.13-4.71C143.69,163.41,143.72,163.39,143.73,163.41Z" style="fill:#263238"></path><path d="M211.84,162.62l15.35,15.67s10-10.57,14.59-21-4.71-9.76-11.52-5.88S211.84,162.62,211.84,162.62Z" style="fill:#4747B3"></path><path d="M241.43,158.07c-.08.18-.17.36-.26.54-.32,0-.64,0-1,0a3.59,3.59,0,0,0-.46,0,9.48,9.48,0,0,0-1.05.15h0a11.22,11.22,0,0,0-1.49.38,20.34,20.34,0,0,0-4.41,2.06l-.29.17c-.29.17-.57.35-.85.53-3.48,2.29-6.67,5-10.05,7.51-.59.43-1.18.86-1.78,1.27l-.28-.29c.61-.43,1.21-.87,1.81-1.32,3.34-2.5,6.5-5.27,10-7.6.25-.16.51-.33.77-.48a2.61,2.61,0,0,1,.28-.17,21,21,0,0,1,4.62-2.19,12.79,12.79,0,0,1,2.61-.57l.52-.05.46,0,.35,0Zm-5.07,6.52c-.69-.57-1.36-1.16-2-1.78l-.33-.31-1.23-1.21-.37-.38-.61-.62c-2-2.07-3.89-4.24-5.83-6.37l-.2.12c1.92,2.16,3.81,4.35,5.8,6.46l.56.58c.11.13.23.25.36.38.41.42.82.84,1.25,1.25l.33.31c.66.64,1.34,1.26,2,1.85.33.27.66.54,1,.8l.21-.31C237,165.11,236.68,164.85,236.36,164.59Zm5.14-7.73c-.63.42-1.24.84-1.85,1.29-.32.22-.64.46-1,.7h0c-1.59,1.19-3.12,2.43-4.67,3.65l-.27.21c-.75.6-1.51,1.19-2.27,1.76a37.79,37.79,0,0,1-10.85,6.11l-.77.23.23.23q.32-.07.63-.18a38,38,0,0,0,11-6.06c.79-.58,1.57-1.17,2.35-1.78l.27-.21c1.79-1.38,3.57-2.8,5.4-4.11.29-.22.58-.42.88-.62l1.15-.79q.18-.42.33-.81C241.9,156.6,241.7,156.73,241.5,156.86Z" style="fill:#fff"></path><path d="M229.23,174.88a150.73,150.73,0,0,1-12.95-13.7c-.06-.05,0-.14.1-.08,1.09,1.27,7.89,7.9,13,13.69C229.4,174.86,229.3,174.94,229.23,174.88Z" style="fill:#263238"></path><path d="M241.78,157.29c-4.55,10.43-14.59,21-14.59,21l-7.07-7.22c5.44-6.56,14.21-17.14,18.57-22.26C242.32,148.82,244.49,151.11,241.78,157.29Z" style="fill:#263238"></path><path d="M216.69,226.26c1,1,61.18,3,61.49,2.63.86-1-6.71-40.27-13-55.29-8.07-19.26-12.69-21-15.45-22.2-3.52-1.5-12.91-1.34-14.47-.71-1.77.71-6.57,9.34-8.93,16.26C221.57,180.84,215.85,225.35,216.69,226.26Z" style="fill:#4747B3"></path><path d="M274.54,207.31c-3,2.12-5.9,4.52-8.9,6.73-.62.46-1.24.91-1.88,1.34l-.67.47a33.41,33.41,0,0,1-8.46,4.25,20.9,20.9,0,0,1-6.23,1,14.19,14.19,0,0,1-6.1-1.5,24.85,24.85,0,0,1-5.23-3.49,62.2,62.2,0,0,1-4.56-4.33c-2.9-3-5.6-6.25-8.5-9.27l-.61-.62-.37-.38c-1-1-2.07-2-3.18-3,0-.14.05-.28.07-.42a44.92,44.92,0,0,1,3.4,3.21c.13.13.25.25.36.38l.56.58c2.88,3.05,5.55,6.29,8.42,9.33s6,6,9.73,7.78a14,14,0,0,0,6,1.43,20.3,20.3,0,0,0,6.14-1,30.09,30.09,0,0,0,7.5-3.75l.61-.4c.93-.63,1.84-1.29,2.74-2,3-2.26,5.9-4.75,9-6.92C274.47,207,274.5,207.13,274.54,207.31Zm-1.13-5.1c-2-2.22-4-4.47-6.06-6.64a60.27,60.27,0,0,0-4.56-4.34,24.85,24.85,0,0,0-5.23-3.49,14.19,14.19,0,0,0-6.1-1.5,20.6,20.6,0,0,0-6.23,1,38,38,0,0,0-11,6.06c-.79.58-1.57,1.17-2.35,1.78a2.47,2.47,0,0,0-.27.21c-2.45,1.89-4.86,3.82-7.43,5.51-.28.18-.56.36-.85.53l-.29.17a20.5,20.5,0,0,1-3.89,1.88l-.09.6a20.53,20.53,0,0,0,4.35-2.1,2.61,2.61,0,0,0,.28-.17c.26-.15.52-.32.77-.48,2.62-1.73,5-3.7,7.48-5.63l.27-.21c.75-.6,1.51-1.19,2.27-1.76a37.56,37.56,0,0,1,10.85-6.11,20.3,20.3,0,0,1,6.14-1,14,14,0,0,1,6,1.43c3.78,1.81,6.87,4.75,9.73,7.78,2.17,2.3,4.22,4.71,6.34,7.06C273.49,202.58,273.45,202.39,273.41,202.21ZM275,209.4a36.41,36.41,0,0,1-10.32,5.72,9.46,9.46,0,0,1-.91.26c-.37.11-.74.2-1.11.28a19.64,19.64,0,0,1-4.12.47,14.12,14.12,0,0,1-6-1.43c-3.77-1.81-6.87-4.75-9.73-7.78s-5.54-6.28-8.42-9.34c-.71-.75-1.43-1.49-2.17-2.2-.11-.11-.22-.22-.33-.31-.66-.65-1.34-1.26-2.05-1.85a24.79,24.79,0,0,0-5.26-3.49,14.52,14.52,0,0,0-3.09-1.08c0,.14-.05.28-.08.43a14.49,14.49,0,0,1,3,1,23.79,23.79,0,0,1,5.21,3.39c.69.57,1.36,1.16,2,1.78l.33.31c.75.72,1.49,1.46,2.21,2.21,2.9,3,5.6,6.23,8.5,9.26a58.22,58.22,0,0,0,4.56,4.33,24.51,24.51,0,0,0,5.23,3.5,14.32,14.32,0,0,0,6.1,1.49,18,18,0,0,0,3.51-.32c.35-.05.7-.13,1-.21.56-.13,1.12-.28,1.67-.45a36.29,36.29,0,0,0,10.32-5.56Zm-12-40.87a4.58,4.58,0,0,1-.64,0,8.38,8.38,0,0,1-2.94-.74,7.68,7.68,0,0,1-.81-.41,4.39,4.39,0,0,1-.47-.27,26.46,26.46,0,0,1-3.72-2.93,33.24,33.24,0,0,0-5-3.88,15.35,15.35,0,0,0-6-2.08,14.2,14.2,0,0,0-1.59-.13l-.8,0-.35,0-.46,0-.52.05a12.79,12.79,0,0,0-2.61.57,21,21,0,0,0-4.62,2.19,2.61,2.61,0,0,0-.28.17c-.26.15-.52.32-.77.48-1.43.95-2.81,2-4.16,3-.12.29-.23.59-.34.88,1.56-1.21,3.14-2.39,4.78-3.47.28-.18.56-.36.85-.53l.29-.17a20.34,20.34,0,0,1,4.41-2.06,11.22,11.22,0,0,1,1.49-.38h0a9.48,9.48,0,0,1,1.05-.15,3.59,3.59,0,0,1,.46,0,15.13,15.13,0,0,1,3.08.12,15.38,15.38,0,0,1,5.79,2,32.62,32.62,0,0,1,4.91,3.81,28.9,28.9,0,0,0,3.45,2.75,4.43,4.43,0,0,0,.46.29,9.94,9.94,0,0,0,1.25.66,9.12,9.12,0,0,0,3.13.78,5.66,5.66,0,0,0,.92,0C263.11,168.88,263,168.7,263,168.53Zm-1.41-2.93q-1.71.81-3.45,1.5l-.65.24a32.16,32.16,0,0,1-3.73,1.15,27.84,27.84,0,0,1-6.16.82,13.4,13.4,0,0,1-6-1.33,24.34,24.34,0,0,1-5.2-3.39c-.69-.57-1.36-1.16-2-1.78l-.33-.31-1.23-1.21-.37-.38-.61-.62c-.61-.63-1.21-1.27-1.79-1.92-.05.09-.09.18-.14.28.56.62,1.12,1.24,1.7,1.85l.56.58c.11.13.23.25.36.38.41.42.82.84,1.25,1.25l.33.31c.66.64,1.34,1.26,2,1.85a24.68,24.68,0,0,0,5.27,3.48,13.72,13.72,0,0,0,6.17,1.42,26.05,26.05,0,0,0,6.27-.82,33.9,33.9,0,0,0,4.07-1.32l.66-.26c1.07-.43,2.12-.91,3.16-1.41A3,3,0,0,0,261.54,165.6Zm-8.27-12.11c-.45-.05-.91-.09-1.36-.11l-.8,0-.81,0a12.88,12.88,0,0,0-3.13.63,23.68,23.68,0,0,0-5.67,2.83c-.63.42-1.24.84-1.85,1.29-.32.22-.64.46-1,.7h0c-1.59,1.19-3.12,2.43-4.67,3.65l-.27.21c-.75.6-1.51,1.19-2.27,1.76a53.94,53.94,0,0,1-5.56,3.73c0,.16-.09.32-.14.48a53.27,53.27,0,0,0,5.95-3.88c.79-.58,1.57-1.17,2.35-1.78l.27-.21c1.79-1.38,3.57-2.8,5.4-4.11.29-.22.58-.42.88-.62l1.15-.79a23.16,23.16,0,0,1,5.55-2.75,12.44,12.44,0,0,1,3-.59,15.89,15.89,0,0,1,3.08.13l.61.1A9.31,9.31,0,0,0,253.27,153.49Z" style="fill:#fff"></path><path d="M252.59,160.14c6,7.75,24.83,31.29,36.91,32.61,8,.87,33.42-1.79,39.78-4.48,2.63-1.11-5.4-25.21-8.55-24.82-5.84.72-27.93,6.84-31.34,6.15-3-.62-13.08-7.74-30.95-17.16C249.26,147.59,247.41,153.45,252.59,160.14Z" style="fill:#d3766a"></path><path d="M327.63,188.66c2.74.06,15.32-.79,18.77-1.8s13.15-4.67,12.64-7.39-3.44-1.88-3.44-1.88,3.86-2.19,3.09-4.88-5.27-1.23-5.27-1.23,3.79-2.54,2.84-5.17-5.25-.4-5.25-.4,3.58-2.16,1.88-4c-2-2.2-8.19,2.52-12.08,3.36-.88.19-18.18,2.59-18.18,2.59Z" style="fill:#d3766a"></path><path d="M351.38,165.72c-4.53,3.47-7.11,4.2-12.7,4.7-.11,0-.12.18,0,.18,5.52,0,8.89-.45,12.88-4.66C351.76,165.73,351.6,165.56,351.38,165.72Z" style="fill:#263238"></path><path d="M353.77,171.2c-5,3.18-7.81,4-13.63,5-.08,0-.06.15,0,.15,5.78-.46,9.14-1,13.73-4.84C354.1,171.3,354,171.05,353.77,171.2Z" style="fill:#263238"></path><path d="M355.3,177.63c-5.08,2.73-8.1,3.76-13.87,4a.11.11,0,0,0,0,.21c5.9.36,9.68-.89,13.94-4C355.66,177.58,355.62,177.46,355.3,177.63Z" style="fill:#263238"></path><path d="M320.73,163.45s5.87-4.07,8.85-5.28,15.73-1.67,16,1.08c.33,3.55-7,5.26-10.67,5.63,0,0,.77,8.21-4.22,10.57S320.73,163.45,320.73,163.45Z" style="fill:#d3766a"></path><path d="M345.34,160.25c-2,3.46-6.92,3.63-10.47,4.26a.33.33,0,0,0-.25.48c.09,3.46-.79,8.37-3.73,10.54a.08.08,0,0,0,.08.14c3.48-1.89,4.74-6.65,4.39-10.44,3.66-.58,8.54-1,10-5C345.38,160.25,345.35,160.23,345.34,160.25Z" style="fill:#263238"></path><path d="M277.23,161.19l-15,16.06s-10.3-10.31-15.12-20.62,4.46-9.88,11.37-6.17S277.23,161.19,277.23,161.19Z" style="fill:#4747B3"></path><path d="M274,159.27c-2,.94-4,2-5.94,3a2.39,2.39,0,0,0,.34.21c1.95-1.05,3.91-2.1,5.91-3Zm1.14.67-.24.24c-1.19,1.18-2.38,2.36-3.62,3.48a3.33,3.33,0,0,0,.55.1c1.15-1.07,2.25-2.19,3.35-3.31l.3-.31Zm-4.35,4.17c-.14.14-.28.26-.43.39a21.12,21.12,0,0,1-5.09,3.51l-.71.26c-.24.09-.49.12-.73.19a6.22,6.22,0,0,1-1.5.06,8.38,8.38,0,0,1-2.94-.74,7.68,7.68,0,0,1-.81-.41l-.66.26a9.94,9.94,0,0,0,1.25.66,9.12,9.12,0,0,0,3.13.78,6.9,6.9,0,0,0,1.63-.09c.26-.07.53-.11.79-.2l.76-.29a21.53,21.53,0,0,0,5.18-3.65l.66-.61A4.54,4.54,0,0,1,270.77,164.11Z" style="fill:#fff"></path><path d="M275.18,163.39l-.74.8-.4.1a6.4,6.4,0,0,1-1.63.08,8.42,8.42,0,0,1-1.11-.14,4.54,4.54,0,0,1-.53-.12,9.73,9.73,0,0,1-1.49-.52,12.88,12.88,0,0,1-1.47-.78l-.34-.22a31.54,31.54,0,0,1-3.35-2.69,31.37,31.37,0,0,0-4.91-3.81,15.15,15.15,0,0,0-5.79-2,15.89,15.89,0,0,0-3.08-.13,12.44,12.44,0,0,0-3,.59c-.3.09-.61.2-.9.31-.06-.17-.12-.34-.16-.5.3-.12.6-.23.9-.32a12.88,12.88,0,0,1,3.13-.63l.81,0,.8,0c.53,0,1.06.07,1.59.13a15.53,15.53,0,0,1,6,2.09,32.61,32.61,0,0,1,5,3.88,27.71,27.71,0,0,0,3.53,2.81s0,0,0,0a2.39,2.39,0,0,0,.34.21,9.19,9.19,0,0,0,1.12.59,8.23,8.23,0,0,0,1.76.57,3.33,3.33,0,0,0,.55.1,4.5,4.5,0,0,0,.63.07,6.22,6.22,0,0,0,1.5-.07c.24-.06.49-.1.73-.18Z" style="fill:#fff"></path><path d="M267.81,162.81l-2.37,1.27c-2.24,1.18-4.52,2.33-6.88,3.29l-.66.26a31,31,0,0,1-3.08,1c-.11-.13-.21-.27-.31-.4a27.67,27.67,0,0,0,2.93-.93,28.9,28.9,0,0,1-3.45-2.75,35.55,35.55,0,0,0-4.44-3.52c-.2-.33-.4-.67-.59-1l.41.23a33.24,33.24,0,0,1,5,3.88,26.46,26.46,0,0,0,3.72,2.93,76.51,76.51,0,0,0,7.17-3.35l2.21-1.16Z" style="fill:#fff"></path><path d="M260.15,173.89a151.51,151.51,0,0,0,12.6-14c.06-.06-.05-.14-.1-.07-1,1.29-7.68,8.09-12.61,14C260,173.88,260.09,174,260.15,173.89Z" style="fill:#263238"></path><path d="M264.72,174.62c-.74.95-1.49,1.88-2.28,2.78l-.15.18-.17-.18c-2.08-2.1-4.05-4.31-5.92-6.6-.94-1.14-1.85-2.3-2.7-3.51a31.17,31.17,0,0,1-2.39-3.74c1.81,2.33,3.75,4.54,5.65,6.79l2.86,3.37,2.82,3.39h-.32C263,176.25,263.84,175.43,264.72,174.62Z" style="fill:#263238"></path><path d="M251.76,166.6a8.27,8.27,0,0,1,1.64,1,10.22,10.22,0,0,1,1.46,1.2,4.65,4.65,0,0,1-1.75-.8A5.25,5.25,0,0,1,251.76,166.6Z" style="fill:#263238"></path><path d="M237.94,160.4c3.3,1.14,9.64-3.44,12.36-7.4.19-.27,0-3.35.07-7.09,0-2.27.09-4.8.33-7.11.05-.47-14.81,2-14.81,2a37,37,0,0,1,.5,9,4.51,4.51,0,0,1-.2.93,1.1,1.1,0,0,1,0,.16C235.68,152.68,234.74,159.29,237.94,160.4Z" style="fill:#d3766a"></path><path d="M249.8,138.77c-1.06,3.83-4.44,13-12.17,12.38a8.72,8.72,0,0,1-1.47-.23.62.62,0,0,1,0-.16,6.37,6.37,0,0,0,.19-.93,36.67,36.67,0,0,0-.49-9S246.61,139,249.8,138.77Z" style="fill:#263238"></path><path d="M252.34,120.3c1.75,5.09-.42,20-4,23.49-5.13,5-13.8,5.77-18.11-.45-4.18-6-1-25.49,3-28.65C239.11,110,249.74,112.78,252.34,120.3Z" style="fill:#d3766a"></path><path d="M240.49,129.52s.07.06.06.1c-.17,1-.2,2.19.66,2.65,0,0,0,.06,0,0C240.1,132,240.16,130.45,240.49,129.52Z" style="fill:#263238"></path><path d="M241.53,128.6c1.64.1,1.31,3.37-.21,3.27S240.16,128.51,241.53,128.6Z" style="fill:#263238"></path><path d="M234.67,128.93s-.09,0-.09.08c-.07,1-.32,2.17-1.27,2.41,0,0,0,.06,0,.06C234.44,131.44,234.76,129.9,234.67,128.93Z" style="fill:#263238"></path><path d="M233.87,127.78c-1.62-.29-2.08,3-.58,3.23S235.22,128,233.87,127.78Z" style="fill:#263238"></path><path d="M243,127.23c-.44-.16-.81-.37-1.23-.57a2.2,2.2,0,0,1-1.13-.83.68.68,0,0,1,.2-.82,1.7,1.7,0,0,1,1.74,0,2.52,2.52,0,0,1,1.34,1.23A.74.74,0,0,1,243,127.23Z" style="fill:#263238"></path><path d="M232.77,126a11.85,11.85,0,0,0,1.33-.2,2.21,2.21,0,0,0,1.32-.47.69.69,0,0,0,.05-.85,1.73,1.73,0,0,0-1.68-.49,2.54,2.54,0,0,0-1.63.8A.74.74,0,0,0,232.77,126Z" style="fill:#263238"></path><path d="M240.07,139c-.27.22-.55.52-.92.51a2.73,2.73,0,0,1-1.06-.36s-.07,0-.05,0a1.35,1.35,0,0,0,1.23.68,1.08,1.08,0,0,0,.89-.81C240.18,139,240.1,139,240.07,139Z" style="fill:#263238"></path><path d="M239.31,135.87a3.47,3.47,0,0,1-2.46,1.3,4.38,4.38,0,0,1-1.25-.06.86.86,0,0,1-.23-.06l-.22-.05a.26.26,0,0,1-.18-.25h0a.44.44,0,0,1,0-.1h0v-.09c.06-.78.25-2,.25-2-.29.12-1.81.62-1.75.22a52.79,52.79,0,0,1,2.39-10.31c0-.1.21-.06.19.05-.4,3.24-1.36,6.39-1.81,9.65a6,6,0,0,1,1.68-.33c.11,0-.42,2.27-.41,2.62a0,0,0,0,0,0,0,4.81,4.81,0,0,0,3.68-.75C239.3,135.72,239.38,135.8,239.31,135.87Z" style="fill:#263238"></path><path d="M236.09,136.81a4.07,4.07,0,0,0,1.58,1.37,1.81,1.81,0,0,0,1.11.14c.83-.17.89-.91.78-1.56a4.42,4.42,0,0,0-.31-1A5.35,5.35,0,0,1,236.09,136.81Z" style="fill:#263238"></path><path d="M237.67,138.18a1.81,1.81,0,0,0,1.11.14c.83-.17.89-.91.78-1.56A1.9,1.9,0,0,0,237.67,138.18Z" style="fill:#ff9bbc"></path><path d="M254,131.8c-4,.41-6.22-4.29-5.4-8.15,0,0-10.58,1.73-11.34-6.78a8.38,8.38,0,0,1-6.79,4l-1.09,3.18c-1.1-.28-2.36-3.34.23-5.85a10.19,10.19,0,0,1,3.11-6.9,5.81,5.81,0,0,1,6.22-1.07,8.81,8.81,0,0,1,6.36-1.77,7.49,7.49,0,0,1,5.65,3.9s5.29.85,6.3,4.56a7.73,7.73,0,0,1-.85,6.27s1.37,1.43.8,4.64C256.86,129.92,255.23,131.68,254,131.8Z" style="fill:#263238"></path><path d="M237.5,116.1a9.62,9.62,0,0,0,0,2.08,8.59,8.59,0,0,0,.44,2,5.41,5.41,0,0,0,2.56,3,8.61,8.61,0,0,0,3.94.87c.69-.05,1.39,0,2.08-.12s1.37-.2,2.07-.27c-.67.18-1.36.34-2,.51s-1.4.17-2.1.26a8.71,8.71,0,0,1-4.19-.81,5.65,5.65,0,0,1-2.67-3.3A8.47,8.47,0,0,1,237.5,116.1Z" style="fill:#263238"></path><path d="M232.17,121.2a11.07,11.07,0,0,0,3.17-1.84,6.65,6.65,0,0,0,1.21-1.33,8.73,8.73,0,0,0,.84-1.64,4.58,4.58,0,0,1-.52,1.83,5,5,0,0,1-1.21,1.52,6.27,6.27,0,0,1-1.64,1A5.91,5.91,0,0,1,232.17,121.2Z" style="fill:#263238"></path><path d="M249.6,132.53s3.28-4.87,5.49-3.7-.22,8.17-2.76,9.17a2.62,2.62,0,0,1-3.52-1.35Z" style="fill:#d3766a"></path><path d="M254.34,130.82a0,0,0,0,1,0,.07c-1.79.76-2.7,2.44-3.34,4.17a1.44,1.44,0,0,1,2.15-.42s0,.1,0,.09a1.6,1.6,0,0,0-1.75.59,7.6,7.6,0,0,0-.83,1.44c-.08.16-.37.08-.31-.1v0C250.16,134.32,251.89,131.09,254.34,130.82Z" style="fill:#263238"></path></g></svg>